<?xml version="1.0" encoding="utf-8"?>
<!-- Generator: Adobe Illustrator 23.0.2, SVG Export Plug-In . SVG Version: 6.00 Build 0)  -->
<svg version="1.1" id="Layer_1" xmlns="http://www.w3.org/2000/svg" xmlns:xlink="http://www.w3.org/1999/xlink" x="0px" y="0px"
	 viewBox="0 0 661.1 338.2" style="enable-background:new 0 0 661.1 338.2;" xml:space="preserve">
<style type="text/css">
	.st0{fill:#FFFFFF;}
</style>
<g>
	<g>
		<path class="st0" d="M198.3,156.9l6.2-15.2l6.2,15.2H198.3z M223.9,167.9l-1-4.2l-0.4-0.2c-0.2,0.1-0.6,0.4-1.2,0.4
			c-1.1,0-1.6-0.8-2.5-2.9l-12-27.5h-4.5l-15.1,35.1h6.3l2.9-7.1h16.2l0.3,0.7c1.1,2.8,2.2,4.7,3.5,5.8c1,0.8,2.3,1.3,3.8,1.3
			c1.4,0,2.7-0.4,3.5-0.9L223.9,167.9z"/>
		<path class="st0" d="M269.2,163.5c-0.2,0.2-0.5,0.4-1.1,0.4c-1,0-1.5-0.8-1.8-3.3l-3.1-27.1h-4l-11.7,26.9l-11.7-26.9h-4
			l-4.1,35.1h5.8l2.3-22.8l9.9,22.8h3.5l9.7-22.6l1.9,17.4c0.5,3.9,2.8,5.9,6.1,5.9c1.4,0,2.4-0.4,3.4-0.9l0.2-0.4l-1-4.2
			L269.2,163.5z"/>
		<path class="st0" d="M292.7,163.7h-9v-10.9h9c4,0,6.6,2.2,6.6,5.4C299.3,161.6,296.7,163.7,292.7,163.7 M283.7,138.3h7.8
			c3.8,0,6.1,1.8,6.1,5s-2.3,5-6.1,5h-7.8V138.3z M298.8,150.2c2.7-1.4,4.9-3.8,4.9-7.4c0-5.1-3-9.3-11.8-9.3h-14.2v35.1h14.7
			c9.2,0,12.9-4.3,12.9-9.7C305.3,154.4,302,151.6,298.8,150.2"/>
		<path class="st0" d="M327.7,150.1h-8.4v-11.5h8.4c3.9,0,6.3,2.3,6.3,5.7C334,147.7,331.6,150.1,327.7,150.1 M342,168.2l0.2-0.4
			l-1.2-4.2l-0.4-0.2c-0.4,0.2-1,0.4-1.5,0.4c-2.4,0-3.5-2.7-4.8-5.8c-0.6-1.5-1.5-3.3-2.5-4.1c5.2-1.2,8.3-4.7,8.3-9.9
			c0-6.6-4.5-10.6-12.9-10.6h-13.9v35.1h6v-14.1h4.8c2,0,3.7,3.4,4.6,5.5c2.1,4.6,4,9.2,9.4,9.2C339.5,169.2,340.9,169,342,168.2"/>
		<path class="st0" d="M365.3,163.8c-7.2,0-12.7-5.4-12.7-12.8s5.6-12.8,12.7-12.8S378,143.6,378,151S372.5,163.8,365.3,163.8
			 M384.1,151c0-10.4-8.2-18.2-18.9-18.2s-18.9,7.8-18.9,18.2s8.1,18.2,18.9,18.2S384.1,161.4,384.1,151"/>
		<path class="st0" d="M402.7,147.5c-3.3-1.2-6.1-2.5-6.1-5.2c0-2.7,2.6-4.4,6-4.4c3.6,0,6.4,1.9,8.2,4.1h0.5l3.1-3.2v-0.5
			c-2.5-3.2-6.7-5.3-11.8-5.3c-6.9,0-12.1,3.8-12.1,9.9c0,6.1,5.4,8.4,9.5,9.9c4.9,1.9,9.2,3,9.2,6.6c0,2.8-2.6,4.9-6.7,4.9
			c-4.1,0-7.5-2.1-9.8-4.9H392l-3,3.5v0.5c3,3.8,7.8,6.2,13.5,6.2c7.2,0,12.6-3.7,12.6-10.1C415.2,151.8,408.3,149.7,402.7,147.5"/>
	</g>
	<rect x="423" y="133.5" class="st0" width="6" height="35.1"/>
	<g>
		<path class="st0" d="M452.6,141.7l6.2,15.2h-12.4L452.6,141.7z M444.5,161.5h16.2l0.3,0.7c1.1,2.8,2.2,4.7,3.5,5.8
			c1,0.8,2.3,1.3,3.8,1.3c1.4,0,2.6-0.4,3.5-0.9l0.2-0.4l-1-4.2l-0.4-0.2c-0.2,0.1-0.6,0.4-1.2,0.4c-1.1,0-1.6-0.8-2.5-2.9l-12-27.5
			h-4.5l-15.1,35.1h6.3L444.5,161.5z"/>
	</g>
	<polygon class="st0" points="292.2,201.2 276.2,201.2 276.2,189.5 273.3,189.5 273.3,215.7 276.2,215.7 276.2,203.8 292.2,203.8 
		292.2,215.7 295.1,215.7 295.1,189.5 292.2,189.5 	"/>
	<g>
		<path class="st0" d="M310.4,207.2l5.4-12.8l5.4,12.8H310.4z M328.8,213.3c-0.1,0.1-0.4,0.3-0.9,0.3c-0.9,0-1.2-0.6-1.7-2
			l-9.4-22.1h-1.6l-11.3,26.2h3l2.5-5.9h13l1.2,2.8c0.6,1.4,1.1,2.3,1.8,2.8c0.6,0.5,1.4,0.9,2.3,0.9c0.8,0,1.5-0.2,2-0.6l0.1-0.2
			l-0.7-2.1L328.8,213.3z"/>
		<path class="st0" d="M354.8,205.4c0,5.1-3,8.1-7.9,8.1c-5,0-7.9-3.1-7.9-8.1v-15.9H336v16c0,6.6,4.1,10.7,10.9,10.7
			c6.7,0,10.8-4.1,10.8-10.7v-16h-2.8L354.8,205.4L354.8,205.4z"/>
		<path class="st0" d="M375.7,200.4c-2.8-1.1-5.1-2.2-5.1-4.6c0-2.4,2.3-4.1,5.4-4.1c2.8,0,4.9,1.4,6.4,3.3h0.2l1.8-1.7v-0.2
			c-1.8-2.3-4.7-4-8.4-4c-4.9,0-8.4,2.9-8.4,7c0,4.1,3.7,5.8,6.4,6.9c4.2,1.7,8.1,2.7,8.1,6.1c0,2.6-2.3,4.5-6,4.5
			c-3.4,0-5.8-1.6-7.7-4h-0.2l-1.7,1.8v0.2c2,2.7,5.5,4.7,9.8,4.7c5.1,0,8.8-2.9,8.8-7.3C385.1,203.6,379.9,202,375.7,200.4"/>
		<path class="st0" d="M540.4,170.7v-0.5h-5.1c-2,0-3.5,0.6-5.3,0.7c-1.9,0.1-4.3-0.2-5.9,0.2c-2.7,0.7-7.7,1.6-9.5,2.8
			c-2.3,1.4-4.8,3.9-6.3,6.1c-1.6,2.5-2.9,5.4-5.3,7c0-1.3,2.4-5.8,3-7.7c0.9-2.6,1.9-5.2,2.7-8c0.8-2.9,1.3-5.9,1.8-8.9
			c0.3-1.8,0.7-8.3,1.5-9.3c2.6-3,3.9-1.6,7.6-3.1c2.5-0.9,3.5-3.6,4.7-6c1.2-2.4,2.5-4.6,3.7-7c1.8-3.4,4.9-3.9,5.7-5.2
			c-4.2,1-12.5,3.8-15.2,6c-2.2,1.8-3.3,3.3-4.5,5.9c-0.8,1.6-1.2,7.7-2.6,8.1v-6.1c0-4.8-0.8-9.1-1.6-13.1
			c-0.5-2.6-3.1-10.4-3.1-11.6v-0.9c0-1.4,0.8-2.8,1.6-3.6c1.5-1.5,1.3-1.1,3.5-1.6c2.6-0.7,4.3-2.7,5-5.4c0.7-2.5,1.3-5.7,2.1-8.2
			c1.1-3.3,4.3-5,4.6-5.9c-2.3,0.6-11.4,5.7-13,7.3c-1.7,1.7-3.3,3.4-3.3,6.7c0,3.3,0.5,7.4-1.4,8.8c-0.2-0.1-5.1-9.8-5.8-11
			c-1.1-1.9-1.9-3.4-3.2-5.2c-0.9-1.2-3.1-3.8-3.1-5.5v-3c0-2.3,2.6-3.8,2.6-6.3v-1.2c0-5.1-3.7-8.6-3.7-14.2v-0.7
			c0-1.3,0.5-1.3,0.5-3c-1.3,1-5.1,13.7-5.1,17V86c0,5.4,5,6.7,5.1,10.9c-0.9-0.6-4.2-4.8-5.4-6c-1.7-1.7-4.1-4.3-6-5.7
			c-2.2-1.7-4.4-3.3-6.4-5.3c-2.8-2.8-2-4.3-2-9.1c0-3.3-3.7-6.6-5.5-8.4c-1.3-1.3-2.3-2.2-3.3-3.7c-0.5-0.8-1-1.2-1.2-2.3
			c-0.1-1-0.3-2.3-0.9-2.8c0,3.1,0.5,5.8,0.5,8.1c0,4.2,0.5,4.2,1.3,7.6c1.5,7,6.8,6,8.8,8.9c-1.5-0.3-7.8-4.5-10.2-5.6
			c-3.2-1.4-7.8-3.4-9.6-6.2c-2.3-3.5-4.5-5.7-9.4-6.4c-1.9-0.3-4.5-1.1-6.2-1.7c-3.3-1.3-2.7-2.1-4.6-3.3c0.4,1.9,5.4,7.5,6.8,9.3
			c1.9,2.7,5.5,6.1,10,6.1c4.3,0,5.8-0.4,9,1.4c1.5,0.9,6.7,2.8,7,4.1c-1-0.5-1.7-0.4-2.8-1.2c-0.8-0.5-1.8-1.1-2.6-1.6
			c-1.4-0.9-4-1.9-6.3-1.9h-0.7c-3.7,0-19.3,4.3-19.8,6.1c0.9-0.4,2.1-0.9,3.5-0.9h3.3c3.1,0,9.4,3,12.3,3h0.9c5.2,0,7.1-3,9.1-3
			h3.3c3.4,0,19.6,12.8,20.2,15.3c-2.4-0.6-3.5-2.2-5.2-3.7c-0.9-0.8-4.6-2.8-6-2.8h-6.5c-2.3,0-13,1.3-13.7,2.3
			c5.4,0,7,0.3,10.5,2.3c1.5,0.8,7.4,3.8,9,3.8h1.9c2.8,0,4.5-1.4,6.3-1.4c4.2,0,5.3,0.9,7.2,3.3c1.5,2,3.3,3.8,4.7,6
			c1.5,2.2,7.4,11.4,7.6,13.8c-3.6-1.9-3.6-10.1-10-12.1c-1.5-0.4-3-1.2-4.2-1.4c-1.7-0.3-3.2-0.3-5-0.6c-2-0.4-3-0.2-5.2-0.4
			c-1.7-0.1-2.9-0.7-4.9-0.7v0.9h1.2c4.6,0,8.9,6.4,11.6,9.1c1.6,1.6,3.4,4.1,6.3,4.1c4.3,0,6.4-0.6,9,1.4c4.3,3.2,4.5,8.8,6.3,14.4
			c1.4,4.6,2.4,12.6,2.4,18.6c-3.7-2.5,0.5-11.3-8.2-16.7c-3.1-1.9-5-2.5-8.6-4c-1.9-0.8-8.2-2.6-9.3-3.3l-0.2,0.3
			c-0.1,0.1,1.7,0.8,1.9,0.9c0.5,0.2,1.3,0.8,1.8,1.2c1.5,1.3,1.6,1.8,2.7,3.4c1.5,2.3,2.8,5.4,4.1,8c5.6,11.2,8.8,4,14.2,9.8
			c2.6,2.7,1.6,5.5,1.2,9.7c-0.3,3.7-1.2,7.1-1.8,10.3c-0.6,3.4-1.7,6.3-2.8,9.3c-0.5,1.5-1.1,3-1.7,4.4c-0.4,1.1-1.6,3.1-1.9,4.1
			c-0.9-0.2-0.9-1.2-0.9-2.3v-0.5c0-3.6,2.3-6.6,2.3-10.9c0-4.6-0.5-5.4-2.2-8.2c-1.4-2.3-2.4-4.4-4.2-6.3
			c-2.4-2.4-8.2-9.1-10.8-10.4c0.3,1.1,0.6,1.2,1.3,1.9c1,1,0.6,1.1,1.2,2.3c1.5,2.9,0.9,1.8,1.2,5.6c0.1,2.1,0.2,4.1,0.2,6.5
			c0,2.6,0.5,4.4,0.5,6.3c0,3.9,2.1,7.4,4.7,8.8c2.7,1.4,5.3,4.3,5.3,8.2v0.7c0,2.4-7.3,12.4-8.9,14.1c-2.1,2.2-9.2,11.1-11.6,11.7
			c0-4,3.6-6.4,5.3-8.9c1.3-2,4-7.1,4-10.1c0-4.8-2.5-12-4.1-15.4c-1.3-2.6-4.7-12.1-6.4-13.2c0.1,1.3,1.2,2.9,1.2,4v4.4
			c0,3.5-2.1,7.9-3.2,10.5c-0.6,1.5-3.3,9.2-3.3,10.6v2.6c0,1.7,1.8,5.1,2.6,6.2c1.3,2,2.8,2.6,2.8,6.1c0,5.1-0.6,4.9-3.5,7.2
			c-2,1.5-4.2,2.9-6.4,4.3c-2.1,1.4-4.5,2.7-6.9,3.8c-1.4,0.7-6.9,2.6-6.9,3.8v1.4c1.8,0,14.6-6.9,16.3-8.1c2.4-1.6,5.1-3.2,7.2-5.1
			c1.8-1.6,4.9-4.3,8.1-4.3h4.2c2.3,0,5.9,4.4,11.4,4.4h1.4c1.9,0,9.6-3.2,11.3-4c2.1-1,9-3.9,11.7-3.9h3.7c1.5,0,2.1,0.8,3.7,0.9
			c-0.9-1.2-10.8-4.4-13.1-5.3c-4.5-1.6-9.5-3.1-15.5-3.1H504c-9.7,0-14,10.2-20.7,10.2c1.4-2,4.7-4.4,6.3-6.5
			c1.9-2.4,3.9-4.6,5.6-7.2c1.8-2.7,3.2-5,4.9-7.9c1.3-2.2,0.6-2.1,2.8-3.7c0.6-0.4,3.9-1.8,4.7-1.8h0.7c1.3,0,1.3,0.5,2.6,0.5h3
			c4.3,0,10.3-5.8,12.7-8.2C530.5,174.4,533.7,171.2,540.4,170.7"/>
		<path class="st0" d="M481.5,74.2c1.3,0,2.4-1.1,2.4-2.4s-1.1-2.4-2.4-2.4s-2.4,1.1-2.4,2.4S480.2,74.2,481.5,74.2"/>
		<path class="st0" d="M466.3,80.9c0-1.3-1.1-2.4-2.4-2.4s-2.4,1.1-2.4,2.4s1.1,2.4,2.4,2.4S466.3,82.2,466.3,80.9"/>
		<path class="st0" d="M458,65.1c1.3,0,2.4-1.1,2.4-2.4s-1.1-2.4-2.4-2.4s-2.4,1.1-2.4,2.4S456.7,65.1,458,65.1"/>
		<path class="st0" d="M501.8,95.6c1.3,0,2.4-1.1,2.4-2.4s-1.1-2.4-2.4-2.4s-2.4,1.1-2.4,2.4S500.4,95.6,501.8,95.6"/>
		<path class="st0" d="M484.9,95.8c0-1.3-1.1-2.4-2.4-2.4s-2.4,1.1-2.4,2.4s1.1,2.4,2.4,2.4C483.9,98.2,484.9,97.1,484.9,95.8"/>
		<path class="st0" d="M513.2,123.6c0,1.3,1.1,2.4,2.4,2.4s2.4-1.1,2.4-2.4s-1.1-2.4-2.4-2.4C514.3,121.2,513.2,122.2,513.2,123.6"
			/>
		<path class="st0" d="M497.8,121.4c0-1.3-1.1-2.4-2.4-2.4s-2.4,1.1-2.4,2.4s1.1,2.4,2.4,2.4C496.7,123.8,497.8,122.8,497.8,121.4"
			/>
		<path class="st0" d="M501.5,151.3c0-1.3-1.1-2.4-2.4-2.4s-2.4,1.1-2.4,2.4s1.1,2.4,2.4,2.4C500.4,153.7,501.5,152.6,501.5,151.3"
			/>
		<path class="st0" d="M510,192.9c0,1.3,1.1,2.4,2.4,2.4c1.3,0,2.4-1.1,2.4-2.4c0-1.3-1.1-2.4-2.4-2.4
			C511.1,190.5,510,191.6,510,192.9"/>
		<path class="st0" d="M493.7,184.1c0-1.3-1.1-2.4-2.4-2.4s-2.4,1.1-2.4,2.4s1.1,2.4,2.4,2.4C492.7,186.5,493.7,185.4,493.7,184.1"
			/>
		<path class="st0" d="M420.3,229.8c-3,0-5.4,2.4-5.4,5.4c0,3,2.4,5.4,5.4,5.4s5.4-2.4,5.4-5.4S423.3,229.8,420.3,229.8"/>
		<path class="st0" d="M432.3,231c-1.7,0-3.1,1.4-3.1,3.1s1.4,3.1,3.1,3.1s3.1-1.4,3.1-3.1C435.3,232.3,434,231,432.3,231"/>
		<path class="st0" d="M442.4,230c-1.2,0-2.2,1-2.2,2.2s1,2.2,2.2,2.2c1.2,0,2.2-1,2.2-2.2S443.6,230,442.4,230"/>
		<path class="st0" d="M197.7,225.7c-2.3-1.2-4.7-2.5-6.9-3.8c-2.2-1.4-4.4-2.7-6.4-4.3c-3-2.2-3.5-2.1-3.5-7.2
			c0-3.5,1.4-4.1,2.8-6.1c0.8-1.2,2.6-4.5,2.6-6.2v-2.6c0-1.5-2.7-9.1-3.3-10.6c-1.1-2.7-3.2-7-3.2-10.5V170c0-1.1,1.1-2.6,1.2-4
			c-1.6,1.1-5.1,10.6-6.4,13.2c-1.7,3.4-4.1,10.6-4.1,15.4c0,3,2.7,8.1,4.1,10.1c1.7,2.6,5.3,5,5.3,8.9c-2.4-0.6-9.5-9.5-11.6-11.7
			c-1.6-1.7-8.9-11.8-8.9-14.1v-0.7c0-3.9,2.5-6.8,5.3-8.2c2.6-1.3,4.7-4.9,4.7-8.8c0-1.9,0.5-3.6,0.5-6.3c0-2.4,0.1-4.5,0.2-6.5
			c0.3-3.8-0.3-2.7,1.2-5.6c0.6-1.2,0.2-1.3,1.2-2.3c0.7-0.7,1.1-0.9,1.3-1.9c-2.5,1.4-8.3,8-10.8,10.4c-1.8,1.8-2.8,4-4.2,6.3
			c-1.8,2.9-2.2,3.7-2.2,8.2c0,4.3,2.3,7.4,2.3,10.9v0.5c0,1.1,0,2.1-0.9,2.3c-0.3-1-1.5-3.1-1.9-4.1c-0.5-1.4-1.1-2.9-1.7-4.4
			c-1.1-3-2.1-6-2.8-9.3c-0.6-3.1-1.5-6.6-1.8-10.3c-0.3-4.3-1.4-7,1.2-9.7c5.5-5.7,8.6,1.4,14.2-9.7c1.3-2.6,2.6-5.7,4.1-8
			c1.1-1.6,1.1-2.1,2.7-3.4c0.5-0.4,1.3-1,1.8-1.2c0.2-0.1,1.9-0.9,1.9-0.9l-0.2-0.3c-1.1,0.7-7.5,2.6-9.3,3.3
			c-3.5,1.5-5.4,2.1-8.6,4c-8.8,5.3-4.5,14.2-8.2,16.7c0-6,0.9-14,2.4-18.6c1.7-5.6,2-11.2,6.3-14.4c2.7-2,4.7-1.4,9.1-1.4
			c3,0,4.7-2.6,6.3-4.1c2.7-2.7,6.9-9.1,11.6-9.1h1.2v-0.9c-2,0-3.2,0.6-4.9,0.7c-2.2,0.2-3.2,0-5.2,0.4c-1.7,0.3-3.3,0.3-5,0.6
			c-1.2,0.2-2.7,0.9-4.2,1.4c-6.4,1.9-6.5,10.2-10.1,12.1c0.2-2.4,6.2-11.6,7.6-13.8c1.4-2.2,3.2-4,4.7-6c1.9-2.4,2.9-3.3,7.2-3.3
			c1.8,0,3.5,1.4,6.3,1.4h1.9c1.7,0,7.6-3,9-3.8c3.6-1.9,5.1-2.3,10.5-2.3c-0.8-1-11.5-2.3-13.7-2.3h-6.5c-1.4,0-5.1,2.1-6,2.8
			c-1.6,1.4-2.8,3.1-5.2,3.7c0.7-2.6,16.8-15.4,20.2-15.4h3.3c2,0,3.9,3,9.1,3h0.9c2.9,0,9.3-3,12.3-3h3.3c1.3,0,2.6,0.5,3.5,0.9
			c-0.5-1.8-16.1-6.1-19.8-6.1h-0.7c-2.3,0-4.9,1-6.3,1.9c-0.8,0.5-1.8,1.1-2.6,1.6c-1.1,0.7-1.8,0.7-2.8,1.2c0.4-1.4,5.5-3.3,7-4.1
			c3.2-1.9,4.8-1.4,9-1.4c4.6,0,8.1-3.4,10-6.1c1.3-1.8,6.3-7.4,6.8-9.3c-1.8,1.2-1.3,2-4.6,3.3c-1.7,0.7-4.3,1.5-6.2,1.7
			c-5,0.8-7.1,2.9-9.4,6.4c-1.9,2.8-6.5,4.8-9.6,6.2c-2.4,1.1-8.8,5.3-10.2,5.6c1.9-2.9,7.2-2,8.8-8.9c0.7-3.3,1.3-3.4,1.3-7.6
			c0-2.3,0.5-5,0.5-8.1c-0.7,0.5-0.8,1.8-0.9,2.8c-0.2,1.1-0.7,1.6-1.2,2.3c-1,1.5-2,2.4-3.3,3.7c-1.8,1.8-5.5,5.2-5.5,8.4
			c0,4.8,0.8,6.3-2,9.1c-2,1.9-4.2,3.5-6.4,5.3c-1.8,1.4-4.3,4-5.9,5.7c-1.2,1.2-4.5,5.4-5.4,6c0.1-4.2,5.1-5.6,5.1-10.9v-0.7
			c0-3.3-3.8-16-5.1-17c0,1.7,0.5,1.7,0.5,3V72c0,5.6-3.7,9.1-3.7,14.2v1.2c0,2.5,2.6,3.9,2.6,6.3v3c0,1.7-2.2,4.3-3.1,5.5
			c-1.3,1.7-2.1,3.3-3.2,5.2c-0.7,1.2-5.6,10.8-5.8,11c-1.9-1.4-1.4-5.6-1.4-8.8c0-3.3-1.7-5-3.3-6.7c-1.6-1.6-10.7-6.7-13-7.3
			c0.3,0.9,3.5,2.6,4.6,5.9c0.8,2.4,1.4,5.6,2.1,8.2c0.8,2.8,2.4,4.8,5,5.4c2.2,0.6,2,0.1,3.5,1.6c0.8,0.8,1.6,2.1,1.6,3.6v0.9
			c0,1.2-2.6,9-3.1,11.6c-0.8,3.9-1.6,8.3-1.6,13.1v6.1c-1.5-0.4-1.9-6.4-2.6-8.1c-1.3-2.7-2.4-4.2-4.5-5.9c-2.7-2.2-11-5-15.2-6
			c0.8,1.3,4,1.8,5.7,5.2c1.2,2.3,2.5,4.6,3.7,7c1.2,2.3,2.2,5,4.7,6c3.8,1.4,5.1,0.1,7.6,3.1c0.8,0.9,1.2,7.4,1.4,9.3
			c0.5,3.1,0.9,6.1,1.8,8.9c0.8,2.8,1.8,5.4,2.7,8c0.6,1.9,3,6.4,3,7.7c-2.4-1.6-3.7-4.6-5.3-7c-1.5-2.2-4-4.6-6.3-6.1
			c-1.9-1.2-6.9-2.1-9.6-2.8c-1.6-0.4-3.9,0-5.9-0.2c-1.8-0.1-3.3-0.7-5.4-0.7H118v0.5c6.7,0.6,9.9,3.7,13.5,7.4
			c2.4,2.4,8.4,8.2,12.7,8.2h3c1.3,0,1.3-0.5,2.6-0.5h0.7c0.9,0,4.1,1.4,4.7,1.8c2.2,1.6,1.5,1.5,2.8,3.7c1.7,2.8,3.1,5.1,4.9,7.9
			c1.7,2.6,3.8,4.8,5.6,7.2c1.6,2.1,5,4.4,6.3,6.5c-6.7,0-11-10.2-20.7-10.2h-0.2c-6,0-10.9,1.6-15.5,3.1
			c-2.3,0.8-12.3,4.1-13.1,5.3c1.6-0.1,2.3-0.9,3.7-0.9h3.7c2.7,0,9.6,2.8,11.7,3.9c1.7,0.8,9.4,4,11.3,4h1.4
			c5.5,0,9.2-4.4,11.4-4.4h4.2c3.2,0,6.3,2.6,8.1,4.3c2.1,1.9,4.8,3.5,7.2,5.1c1.8,1.2,14.6,8.1,16.3,8.1v-1.4
			C204.6,228.4,199.1,226.4,197.7,225.7"/>
		<path class="st0" d="M177,74.2c1.3,0,2.4-1.1,2.4-2.4s-1.1-2.4-2.4-2.4c-1.3,0-2.4,1.1-2.4,2.4S175.6,74.2,177,74.2"/>
		<path class="st0" d="M192.2,80.9c0,1.3,1.1,2.4,2.4,2.4c1.3,0,2.4-1.1,2.4-2.4s-1.1-2.4-2.4-2.4C193.2,78.5,192.2,79.6,192.2,80.9
			"/>
		<path class="st0" d="M200.4,65.1c1.3,0,2.4-1.1,2.4-2.4s-1.1-2.4-2.4-2.4c-1.3,0-2.4,1.1-2.4,2.4S199.1,65.1,200.4,65.1"/>
		<path class="st0" d="M156.7,95.6c1.3,0,2.4-1.1,2.4-2.4s-1.1-2.4-2.4-2.4c-1.3,0-2.4,1.1-2.4,2.4S155.4,95.6,156.7,95.6"/>
		<path class="st0" d="M173.5,95.8c0,1.3,1.1,2.4,2.4,2.4c1.3,0,2.4-1.1,2.4-2.4s-1.1-2.4-2.4-2.4C174.6,93.4,173.5,94.5,173.5,95.8
			"/>
		<path class="st0" d="M145.2,123.6c0-1.3-1.1-2.4-2.4-2.4c-1.3,0-2.4,1.1-2.4,2.4c0,1.3,1.1,2.4,2.4,2.4
			C144.1,126,145.2,124.9,145.2,123.6"/>
		<path class="st0" d="M160.7,121.4c0,1.3,1.1,2.4,2.4,2.4c1.3,0,2.4-1.1,2.4-2.4s-1.1-2.4-2.4-2.4
			C161.8,119,160.7,120.1,160.7,121.4"/>
		<path class="st0" d="M157,151.3c0,1.3,1.1,2.4,2.4,2.4c1.3,0,2.4-1.1,2.4-2.4s-1.1-2.4-2.4-2.4C158,148.9,157,150,157,151.3"/>
		<path class="st0" d="M140.9,158.8c0-1.3-1.1-2.4-2.4-2.4c-1.3,0-2.4,1.1-2.4,2.4s1.1,2.4,2.4,2.4
			C139.9,161.2,140.9,160.1,140.9,158.8"/>
		<path class="st0" d="M148.4,192.9c0-1.3-1.1-2.4-2.4-2.4c-1.3,0-2.4,1.1-2.4,2.4c0,1.3,1.1,2.4,2.4,2.4
			C147.3,195.3,148.4,194.2,148.4,192.9"/>
		<path class="st0" d="M167.1,181.7c-1.3,0-2.4,1.1-2.4,2.4c0,1.3,1.1,2.4,2.4,2.4c1.3,0,2.4-1.1,2.4-2.4S168.4,181.7,167.1,181.7"
			/>
		<path class="st0" d="M238.1,229.8c-3,0-5.4,2.4-5.4,5.4c0,3,2.4,5.4,5.4,5.4c3,0,5.4-2.4,5.4-5.4
			C243.5,232.2,241.1,229.8,238.1,229.8"/>
		<path class="st0" d="M226.2,231c-1.7,0-3.1,1.4-3.1,3.1s1.4,3.1,3.1,3.1s3.1-1.4,3.1-3.1C229.2,232.3,227.9,231,226.2,231"/>
		<path class="st0" d="M216,230c-1.2,0-2.2,1-2.2,2.2s1,2.2,2.2,2.2c1.2,0,2.2-1,2.2-2.2S217.2,230,216,230"/>
	</g>
	<polygon class="st0" points="406.1,56.2 406.1,58.6 406.4,58.6 406.4,59.3 406.1,59.3 406.1,94.9 406.6,94.9 406.6,56.2 	"/>
	<rect x="406.1" y="94.9" class="st0" width="0.4" height="4.7"/>
	<polygon class="st0" points="405.7,59.3 405.7,94.9 406,94.9 406.1,94.9 406.1,59.3 	"/>
	<polygon class="st0" points="406,94.9 405.7,94.9 405.7,99.6 406.1,99.6 406.1,94.9 	"/>
	<rect x="252.8" y="56.2" class="st0" width="0.4" height="38.7"/>
	<rect x="252.8" y="94.9" class="st0" width="0.4" height="4.7"/>
	<rect x="253.2" y="94.9" class="st0" width="0.4" height="4.7"/>
	<rect x="253.3" y="58.6" class="st0" width="0.4" height="0.7"/>
	<rect x="406.1" y="58.6" class="st0" width="0.3" height="0.7"/>
	<rect x="405.7" y="58.6" class="st0" width="0.4" height="0.7"/>
	<g>
		<path class="st0" d="M272.1,50.6h4.8v2.2h-4.8V50.6z M281.8,50.6h4.8v2.2h-4.8V50.6z M328.2,59.3h1h21.9v13h-3.9h-1.7h-3.1v-8.8
			h3.1v-1.7h-4.8v10.4h-11.6h-1.1h-9h-1.7h-3.1v-8.8h3.1v-1.7h-4.8v10.4h-4.6v-13H328.2z M372.8,50.6h4.8v2.2h-4.8V50.6z
			 M382.6,50.6h4.8v2.2h-4.8V50.6z M308.1,94.9v-16H328h1.1h22.2v16.1v3h-3.9h-1.7h-2.3v-3v-10h2.3v-1.7h-4v11.6v3h-4.4H336h-4.1v-3
			v-10h4.1v-1.7h-12.7v11.6v3h-4.9h-1.7h-2.3v-3v-10h2.3v-1.7h-4v11.6v3h-4.6L308.1,94.9L308.1,94.9z M312.8,77.4h-4.6V73h4.6V77.4z
			 M340.8,77.4H329H328h-8.8h-1.7h-3.1V73h3.1h1.7h9h1h11.6L340.8,77.4L340.8,77.4z M351.2,77.4h-3.9h-1.7h-3.1V73h3.1h1.7h3.9V77.4
			z M325,94.9v-10h5.4v10v3H325V94.9z M353.8,58.6L353.8,58.6l0,0.7h0v35.5v4.5l-1.8-1.2v-3.3V56.2h1.8V58.6z M421.5,104.7l-9.3-8.5
			c-0.9-0.8-2.2-1.3-3.5-1.3h-2.2v4.7h-0.4h-0.4h-22.5h-1.7h-2.2v-4.7v-9.5h2.2v-1.7h-3.9v11.1v4.7h-3.4h-1.7h-2.2v-4.7v-9.5h2.2
			v-1.7h-3.9v11.1v4.7h-3.4h-1.7h-2.2v-4.7v-9.5h2.2v-1.7h-3.9v11.1v4.7h-4.9v-4.7v-16h23.7h1.2h26v-1.4h-26h-1.2h-23.7V59.4h23.7
			h1.3h26.1v-0.7h-26.1h-1.3h-23.7v-2.4h51v2.4h0.4v-2.5h0.4h5.6c0.3,0,0.3-0.4,0.1-0.5l-32.1-10.2l-26.3,9.9l-1.1,0.4l-0.7,0.3
			l-0.4,0.1l-0.1,0l-0.4,0.2v2.3h-21.9h-1.1h-20.1v-2l-0.4-0.2l-0.4-0.2v38.6v3.3l-1.8,1.2v-4.5V56.2h1.5l-0.1,0l-1-0.4l-0.6-0.2
			l-0.3-0.1l-0.2-0.1l-25.5-10L247,55.7c-0.3,0.1-0.2,0.5,0.1,0.5h5.6h0.4v38.7h0.4V59.3h-0.4v-0.7h0.4v-2.4h51v2.4h-25.9h-1.2
			h-23.8v0.7h23.8h1.2h25.9v18.1h-25.9h-1.2h-23.9v1.4h23.9h1.2h25.9v16v4.7h-4.2h-1.7h-2.2v-4.7v-9.5h2.2v-1.7h-3.9v11.1v4.7h-3.3
			h-1.7h-2.2v-4.7v-9.5h2.2v-1.7h-3.9v11.1v4.7h-3.3h-1.7h-2.2v-4.7v-9.5h2.2v-1.7h-3.9v11.1v4.7h-23.2h-0.4h-0.4v-4.7h-0.1h-3.3
			c-1.3,0-2.6,0.5-3.5,1.3l-9,8.4c-0.3,0.3-0.1,0.8,0.3,0.8H310l-4.2,5.9H355l-4.9-5.9h71C421.6,105.5,421.8,105,421.5,104.7"/>
	</g>
	<polygon class="st0" points="333.7,63.5 336.8,63.5 336.8,61.9 332,61.9 332,70 333.7,70 	"/>
	<polygon class="st0" points="323.5,63.5 326.6,63.5 326.6,61.9 321.8,61.9 321.8,70 323.5,70 	"/>
	<polygon class="st0" points="299.1,63.5 299.1,61.9 294.4,61.9 294.4,70.8 296.1,70.8 296.1,63.5 	"/>
	<polygon class="st0" points="290.1,63.5 290.1,61.9 285.3,61.9 285.3,70.8 287,70.8 287,63.5 	"/>
	<polygon class="st0" points="272.8,63.5 272.8,61.9 268,61.9 268,70.8 269.7,70.8 269.7,63.5 	"/>
	<polygon class="st0" points="263.5,63.5 263.5,61.9 258.8,61.9 258.8,70.8 260.5,70.8 260.5,63.5 	"/>
	<polygon class="st0" points="263.5,85.1 263.5,83.5 258.8,83.5 258.8,92.4 260.5,92.4 260.5,85.1 	"/>
	<polygon class="st0" points="360.9,70.8 360.9,63.5 364,63.5 364,61.9 359.2,61.9 359.2,70.8 	"/>
	<polygon class="st0" points="370,70.8 370,63.5 373.1,63.5 373.1,61.9 368.3,61.9 368.3,70.8 	"/>
	<polygon class="st0" points="396.2,92.4 396.2,85.1 399.2,85.1 399.2,83.5 394.5,83.5 394.5,92.4 	"/>
	<polygon class="st0" points="396.2,70.8 396.2,63.5 399.2,63.5 399.2,61.9 394.5,61.9 394.5,70.8 	"/>
	<polygon class="st0" points="387.2,70.8 387.2,63.5 390.2,63.5 390.2,61.9 385.5,61.9 385.5,70.8 	"/>
	<path class="st0" d="M316.8,50.6h4.8v2.2h-4.8V50.6z M327.5,50.6h4.8v2.2h-4.8V50.6z M338.1,50.6h4.8v2.2h-4.8V50.6z M281.1,45.2
		l26.1,10.2l0.4,0.1l0.5,0.2l0.3,0.1l1,0.4l0.1,0h39.7l0.1,0l1.1-0.4l1.1-0.4l27-10.2H281.1z"/>
</g>
<g>
	<path class="st0" d="M55.9,270.3v29.1h-4.4l-16-19.7v19.7h-5.4v-29.1h4.4l16,19.7v-19.7H55.9z"/>
	<path class="st0" d="M76.3,289.1v10.3h-5.4v-10.2l-11.4-18.9h5.8l8.5,14.2l8.6-14.2h5.3L76.3,289.1z"/>
	<path class="st0" d="M93.9,296.4c-2.2-2.3-3.4-5.5-3.4-9.7v-16.4h5.4v16.2c0,5.7,2.5,8.6,7.4,8.6c4.9,0,7.4-2.9,7.4-8.6v-16.2h5.3
		v16.4c0,4.2-1.1,7.4-3.3,9.7s-5.4,3.4-9.4,3.4C99.2,299.8,96.1,298.7,93.9,296.4z"/>
	<path class="st0" d="M143.4,284.5h5.1v11.6c-1.5,1.2-3.2,2.1-5.2,2.7c-2,0.6-4,1-6.1,1c-3,0-5.6-0.6-8-1.9
		c-2.4-1.3-4.3-3.1-5.6-5.3c-1.4-2.3-2-4.8-2-7.7c0-2.9,0.7-5.4,2-7.7c1.4-2.3,3.2-4,5.6-5.3c2.4-1.3,5.1-1.9,8.1-1.9
		c2.4,0,4.7,0.4,6.6,1.2c2,0.8,3.7,2,5,3.5l-3.4,3.3c-2.2-2.2-4.9-3.3-8-3.3c-2,0-3.9,0.4-5.5,1.3c-1.6,0.9-2.8,2.1-3.7,3.6
		c-0.9,1.6-1.3,3.3-1.3,5.3c0,1.9,0.4,3.7,1.3,5.2c0.9,1.6,2.1,2.8,3.7,3.7c1.6,0.9,3.4,1.3,5.4,1.3c2.3,0,4.3-0.5,6-1.5V284.5z"/>
	<path class="st0" d="M155.6,270.3h12.7c3.1,0,5.9,0.6,8.3,1.8c2.4,1.2,4.3,2.9,5.6,5.1c1.3,2.2,2,4.7,2,7.6s-0.7,5.4-2,7.6
		c-1.3,2.2-3.2,3.9-5.6,5.1c-2.4,1.2-5.2,1.8-8.3,1.8h-12.7V270.3z M168,294.8c2.1,0,4-0.4,5.6-1.2c1.6-0.8,2.9-2,3.7-3.5
		c0.9-1.5,1.3-3.3,1.3-5.3c0-2-0.4-3.7-1.3-5.3c-0.9-1.5-2.1-2.7-3.7-3.5c-1.6-0.8-3.5-1.2-5.6-1.2H161v19.9H168z"/>
	<path class="st0" d="M194.7,262.2h6.1l-7.2,5.7h-4.5L194.7,262.2z M189.9,270.3h5.4v29.1h-5.4V270.3z"/>
	<path class="st0" d="M202.5,298.7c-1.6-0.7-2.8-1.8-3.8-3.1l3.1-3.7c1.6,2.2,3.5,3.3,5.8,3.3c3,0,4.5-1.8,4.5-5.4v-15h-10.3v-4.5
		h15.7v19.3c0,3.4-0.8,6-2.5,7.7s-4.1,2.6-7.3,2.6C205.8,299.8,204.1,299.4,202.5,298.7z"/>
	<path class="st0" d="M243.2,292.6h-14.5l-2.9,6.7h-5.6l13.1-29.1h5.3l13.1,29.1h-5.6L243.2,292.6z M241.5,288.4l-5.5-12.7
		l-5.4,12.7H241.5z"/>
	<path class="st0" d="M258,298.8c-2.1-0.6-3.7-1.5-5-2.5l1.9-4.2c1.2,0.9,2.7,1.7,4.4,2.3c1.7,0.6,3.5,0.9,5.2,0.9
		c2.2,0,3.8-0.3,4.8-1c1.1-0.7,1.6-1.6,1.6-2.7c0-0.8-0.3-1.5-0.9-2.1c-0.6-0.5-1.3-1-2.3-1.3c-0.9-0.3-2.2-0.6-3.7-1
		c-2.2-0.5-4-1.1-5.4-1.6c-1.4-0.5-2.5-1.4-3.5-2.5s-1.5-2.6-1.5-4.5c0-1.6,0.4-3.1,1.3-4.4c0.9-1.3,2.2-2.4,3.9-3.1
		c1.8-0.8,3.9-1.2,6.5-1.2c1.8,0,3.5,0.2,5.2,0.7c1.7,0.4,3.2,1.1,4.4,1.9l-1.7,4.2c-1.3-0.7-2.6-1.3-4-1.7c-1.4-0.4-2.7-0.6-4-0.6
		c-2.1,0-3.7,0.4-4.8,1.1c-1,0.7-1.6,1.7-1.6,2.9c0,0.8,0.3,1.5,0.9,2c0.6,0.5,1.3,0.9,2.3,1.2c0.9,0.3,2.2,0.7,3.7,1
		c2.2,0.5,3.9,1,5.3,1.6c1.4,0.5,2.6,1.4,3.6,2.5c1,1.1,1.5,2.6,1.5,4.5c0,1.6-0.4,3.1-1.3,4.4c-0.9,1.3-2.2,2.3-4,3.1
		c-1.8,0.8-3.9,1.2-6.5,1.2C262.3,299.8,260.1,299.5,258,298.8z"/>
	<path class="st0" d="M311.9,292.6h-14.5l-2.9,6.7H289l13.1-29.1h5.3l13.1,29.1h-5.6L311.9,292.6z M310.1,288.4l-5.5-12.7l-5.4,12.7
		H310.1z"/>
	<path class="st0" d="M342.7,271.5c1.9,0.8,3.3,2,4.3,3.6c1,1.6,1.5,3.4,1.5,5.5c0,2.1-0.5,3.9-1.5,5.5c-1,1.6-2.4,2.8-4.3,3.6
		c-1.9,0.8-4.1,1.2-6.6,1.2h-6.6v8.4h-5.4v-29.1h12C338.7,270.3,340.9,270.7,342.7,271.5z M341.3,284.9c1.2-1,1.8-2.4,1.8-4.3
		c0-1.9-0.6-3.3-1.8-4.3c-1.2-1-3-1.5-5.4-1.5h-6.3v11.5h6.3C338.3,286.4,340,285.9,341.3,284.9z"/>
	<path class="st0" d="M371.3,292.6h-14.5l-2.9,6.7h-5.6l13.1-29.1h5.3l13.1,29.1h-5.6L371.3,292.6z M369.5,288.4l-5.5-12.7
		l-5.4,12.7H369.5z"/>
	<path class="st0" d="M402.6,299.4l-5.9-8.5c-0.2,0-0.6,0-1.1,0H389v8.5h-5.4v-29.1h12c2.5,0,4.7,0.4,6.6,1.2c1.9,0.8,3.3,2,4.3,3.6
		c1,1.6,1.5,3.4,1.5,5.5c0,2.2-0.5,4.1-1.6,5.6c-1.1,1.6-2.6,2.8-4.6,3.5l6.7,9.6H402.6z M400.6,276.4c-1.2-1-3-1.5-5.4-1.5H389
		v11.6h6.3c2.4,0,4.1-0.5,5.4-1.5c1.2-1,1.8-2.4,1.8-4.3C402.5,278.8,401.9,277.4,400.6,276.4z"/>
	<path class="st0" d="M419.4,274.9h-9.6v-4.6h24.7v4.6h-9.6v24.5h-5.4V274.9z"/>
	<path class="st0" d="M465.2,299.4l0-19.3l-9.6,15.9h-2.4l-9.6-15.7v19h-5.2v-29.1h4.4l11.5,19.3l11.3-19.3h4.4l0,29.1H465.2z"/>
	<path class="st0" d="M497,292.6h-14.5l-2.9,6.7h-5.6l13.1-29.1h5.3l13.1,29.1h-5.6L497,292.6z M495.2,288.4l-5.5-12.7l-5.4,12.7
		H495.2z"/>
	<path class="st0" d="M535.1,270.3v29.1h-4.4l-16-19.7v19.7h-5.4v-29.1h4.4l16,19.7v-19.7H535.1z"/>
	<path class="st0" d="M568.8,270.3v29.1h-5.4v-12.5h-15v12.5h-5.4v-29.1h5.4v12h15v-12H568.8z"/>
	<path class="st0" d="M595.4,292.6h-14.5l-2.9,6.7h-5.6l13.1-29.1h5.3l13.1,29.1h-5.6L595.4,292.6z M593.6,288.4l-5.5-12.7
		l-5.4,12.7H593.6z M590.3,262.2h6.1l-7.2,5.7h-4.5L590.3,262.2z"/>
	<path class="st0" d="M630.3,294.8v4.6h-24.8v-3.6l17.1-20.9h-16.8v-4.6h24v3.6l-17.1,20.9H630.3z"/>
</g>
</svg>
